<svg xmlns="http://www.w3.org/2000/svg" width="121.454" height="42.951"><path fill="#4C6392" d="M103.266 38.402c-.406 1.555-1.061 2.684-1.957 3.385-.896.704-2.131 1.055-3.703 1.055l-5.619-.002c-1.572 0-2.621-.352-3.15-1.057-.527-.701-.586-1.831-.178-3.387l1.867-7.103c.406-1.556 1.059-2.683 1.955-3.388.896-.7 2.131-1.052 3.705-1.052h5.619c1.572 0 2.621.354 3.15 1.056.525.705.586 1.832.178 3.389l-1.867 7.104zm-2.232-7.045c.23-.876-.098-1.314-.982-1.314l-3.768-.002c-.885 0-1.443.439-1.674 1.313l-1.838 7.002c-.23.875.1 1.313.986 1.313l3.764.002c.887 0 1.443-.438 1.674-1.313l1.838-7.001zm-50.872 1.637h-5.435l.778-2.959h8.491l.841-3.188H42.271l-4.194 15.929h9.51c1.585 0 2.83-.36 3.736-1.081.908-.721 1.568-1.877 1.99-3.468l.18-.685c.42-1.59.365-2.751-.162-3.47s-1.583-1.078-3.169-1.078m-1.046 5.649c-.202.761-.575.992-1.384.992h-4.754l.91-3.458h4.807c.763 0 1.043.287.84.927l-.419 1.539zm20.791-11.789l-5.498 7.982-1.973-7.982-4.529-.001s1.903 6.604 3.242 11.136c.241.819-.487 1.663-1.215 1.663h-2.579l.086 3.189c.451.073 1.209.129 2.03.103 1.835-.058 3.771-.773 5.935-3.721a7290.585 7290.585 0 009.029-12.369h-4.528zm47.47 15.974h4.076l-.367-15.975-5.268-.002c-1.668 0-2.871.691-3.795 2.486-.738 1.441-3.035 6.063-4.617 9.133-.498.965-.908 1.199-1.521 1.199h-1.035l.096 3.166s.959.123 1.854.064c1.551-.101 2.813-.876 3.74-2.688 2.436-4.762 3.34-6.509 5-9.594.203-.377.537-.566.955-.566h.709l.173 12.777zm-39.544-3.167c-.52 0-1.057-.282-.836-1.134l1.883-7.132c.24-.907.811-1.36 1.719-1.358h7.244l.838-3.188h-8.15c-1.586 0-2.83.357-3.736 1.07-.902.713-1.563 1.859-1.979 3.434l-1.896 7.211c-.391 1.473-.328 2.555.186 3.244.512.691 1.508 1.037 2.988 1.037l8.389.002.838-3.187h-7.488zM4.735 42.828c1.33-.729 71.467-38.932 73.285-39.936.08-.043-.006-.189-.086-.162-1.644.584-32.496 11.488-32.496 11.488L49.132 0H0s2.004 1.454 3.451 2.481C6.318 4.512 9.66 4.232 9.66 4.232h35.036l-1.649 1.587H8.149l3.275 2.435s2.447 1.801 6.427 1.801c5.275-.004 14.496-.013 20.823-.021l-1.632 1.573H16.251s2.03 1.432 3.464 2.476c1.619 1.188 3.391 1.758 6.207 1.752 2.006-.005 4.304-.006 6.742-.009L4.6 42.659c-.091.089.05.215.135.169"/><path fill="none" d="M0 0h121.454v42.95H0z"/></svg>