<svg xmlns="http://www.w3.org/2000/svg" x="0" y="0" viewBox="0 0 492 95" xml:space="preserve">
  <style>
    .st6{fill:#9a9f9d}.st7{fill:#413e3c}
  </style>
  <path d="M91.4 29.2C89 23.5 85.6 18.4 81.3 14c-4.3-4.4-9.4-7.8-15-10.2C60.5 1.3 54.3 0 47.9 0c-6.5 0-12.7 1.2-18.6 3.7-5.7 2.4-10.8 5.8-15.2 10.1-4.4 4.3-7.8 9.4-10.2 15C1.4 34.6.1 40.8.1 47.2c0 6.4 1.3 12.7 3.7 18.5C6.2 71.5 9.6 76.6 14 81c4.4 4.4 9.4 7.8 15.1 10.2 5.9 2.5 12.1 3.7 18.5 3.7s12.6-1.3 18.5-3.7c5.7-2.4 10.7-5.8 15.1-10.1s7.8-9.4 10.2-15c2.5-5.8 3.8-12 3.8-18.3-.1-6.5-1.3-12.7-3.8-18.6z" fill="#43403e"/>
  <path d="M91.6 47.7c-.2-11-3.6-20.6-10.7-28.8-1.1-1.3-2.3-2.5-3.5-3.7-.2-.2-.4-.4-.8-.4-9.2.5-17.3 3.6-23.8 10.3-1.5 1.6-2.8 3.4-4 5.3-.3.4-.2.8 0 1.2 1.8 3.3 3 6.8 3.5 10.5 1.2 7.5.1 14.7-3.4 21.4-.3.6-.3 1.1.1 1.7 5.3 7.8 12.5 12.7 21.7 14.5 1.9.4 3.5.5 5.8.6.4.1.6-.1.8-.4 7.2-6.8 11.9-15 13.6-24.9.5-2.5.6-5 .7-7.3" fill="#55a09d"/>
  <path d="M20 81.8c8.7 6.8 18.5 10.1 29.3 9.7 9.6-.3 18.1-3.5 25.9-9.6-2.1-.2-4-.4-5.8-.8-5.2-1.1-9.7-3.5-13.9-6.7-2.9-2.2-5.4-4.9-7.4-7.9-.4-.6-.6-.5-1 0-4.1 6-9.6 10.2-16.2 13-1.7.7-3.5 1.2-5.3 1.6-1.8.3-3.6.5-5.6.7" fill="#5c3680"/>
  <path d="M20 13.3c8.7-6.8 18.5-10.1 29.3-9.7 9.6.3 18.1 3.5 25.9 9.6-2.1.2-4 .4-5.8.8-5.2 1.1-9.7 3.5-13.9 6.7-2.9 2.2-5.4 4.9-7.4 7.9-.4.6-.6.5-1 0-4.1-6-9.6-10.2-16.2-13-1.7-.7-3.5-1.2-5.3-1.6-1.8-.3-3.6-.5-5.6-.7" fill="#9e3f60"/>
  <path d="M3.6 47.7c.2-11.1 3.7-20.6 10.7-28.9 1.1-1.3 2.3-2.5 3.5-3.7.2-.2.4-.4.8-.4 9.2.5 17.3 3.6 23.8 10.3 1.5 1.6 2.8 3.4 4 5.3.3.4.2.8 0 1.2-1.8 3.3-3 6.8-3.5 10.5-1.2 7.5-.1 14.7 3.4 21.4.3.6.3 1.1-.1 1.7-5.3 7.8-12.5 12.7-21.7 14.5-1.9.4-2.6.3-5.8.6-.4.1-.6-.1-.8-.4C10.6 73 6 64.8 4.3 55c-.5-2.5-.6-5-.7-7.3" fill="#deda54"/>
  <path d="M47.6 32.6S44 39.1 44 47.5c0 8.3 3.6 14.8 3.6 14.8s3.6-6.5 3.6-14.8c0-8.4-3.6-14.9-3.6-14.9" fill="#e3cdb8"/>
  <path class="st6" d="M269.2 81.7h-7.4V20h-15v-6.7h37.4V20h-15zM294.7 47.2c0 8.3 2.7 15.3 8.1 20.9 5.4 5.6 12.1 8.5 20 8.5 7.8 0 14.3-2.8 19.7-8.5 5.4-5.7 8-12.7 8-21 0-7.8-2.8-14.5-8.3-20.1-5.5-5.6-12.1-8.4-19.9-8.4-3.2 0-6.2.5-9.1 1.6-2.9 1.1-5.6 2.7-8.1 4.8-3.3 2.8-5.8 6.1-7.7 10.1-1.8 3.8-2.7 7.9-2.7 12.1m-7.1-.1c0-4.8.9-9.3 2.7-13.6 1.8-4.3 4.5-8.2 8-11.6 3.4-3.3 7-5.8 11.1-7.4 4-1.7 8.4-2.5 13.1-2.5 4.8 0 9.2.8 13.3 2.5 4.1 1.7 7.8 4.2 11.2 7.5 3.5 3.4 6.1 7.2 7.8 11.5 1.8 4.2 2.6 8.8 2.6 13.7 0 4.9-.8 9.3-2.3 13.4-1.5 4.1-3.8 7.7-6.8 11.1-3.5 3.8-7.4 6.7-11.8 8.6-4.4 1.9-9.1 2.9-14.3 2.9-9.8 0-18.1-3.4-24.7-10.4-6.5-7-9.9-15.5-9.9-25.7M372.5 20v61.6h-6.6V13.3h18.4c4 0 7.3.3 9.7.9 2.5.6 4.7 1.6 6.7 3 2.7 1.9 4.9 4.5 6.5 7.7 1.6 3.2 2.4 6.6 2.4 10.1 0 5.3-1.6 9.8-4.7 13.7-3.1 3.8-7.1 5.9-11.8 6.2l16.5 26.7h-8l-20.3-33h6.5c4.3 0 7.8-1.3 10.5-3.8s4.1-5.8 4.1-9.8c0-2.4-.4-4.6-1.2-6.6-.8-2-2.1-3.7-3.7-5.2-1.3-1.2-3-2.1-4.9-2.6-1.9-.5-5.3-.8-10.1-.8h-10zM420.2 13.3h6.7v68.4h-6.7zM474.2 54.1l-13-34.3-12.8 34.3h25.8zM438 81.7h-7.1l26.5-68.4h8.1l26.4 68.4h-7.2l-8.2-21.5h-30.4L438 81.7z"/>
  <path class="st7" d="M131.2 81.7h-7.6V20h-15.4v-6.7h38.4V20h-15.4zM160.3 44H189v6.7h-28.7v24.4H189v6.6h-35.4V13.3H189V20h-28.7zM202.1 81.7h-6.9l19.7-34.4-19.2-34h6.9l15.6 28.4 15.5-28.4h6.9l-19.2 34L241 81.7h-7l-15.8-29z"/>
</svg>
