<?xml version="1.0" encoding="utf-8"?>
<!-- Generator: Adobe Illustrator 28.3.0, SVG Export Plug-In . SVG Version: 6.00 Build 0)  -->
<svg version="1.1" id="Layer_1" xmlns="http://www.w3.org/2000/svg" xmlns:xlink="http://www.w3.org/1999/xlink" x="0px" y="0px"
	 viewBox="10 0 58 68" style="enable-background:new 0 0 78 78;" xml:space="preserve">
<style type="text/css">
	.st0{fill:#FFFFFF;}
	.st1{clip-path:url(#SVGID_00000111184185085303199910000001424478155335790260_);}
	.st2{clip-path:url(#SVGID_00000094593439823921451420000013711582035783637946_);}
	.st3{clip-path:url(#SVGID_00000077289789677808058540000011059989610006038161_);}
	.st4{clip-path:url(#SVGID_00000160164916368621171920000008159754170076502699_);}
	.st5{clip-path:url(#SVGID_00000050635084804200466630000014743884769843716769_);}
</style>
<path d="M58.21,27.74c0,0-3.38-6.26-4.34-8.43c-0.59-1.34-0.43-1.15-5.74-1.23c-5.32-0.09-22.09,0-22.09,0s-1.91-0.38-2.85,1.79
	c-0.94,2.17-4.43,8.85-4.43,8.85s-1.53,3.06,3.02,2.77c4.55-0.3,34.94,0.02,34.94,0.02S60.18,31.57,58.21,27.74z"/>
<path class="st0" d="M24.38,20.02l-4.26,8.21c0,0-1.06,1.57,2.6,1.66s33.87,0,33.87,0s1.91,0.47,0.34-2.3
	c-1.57-2.77-3.28-5.63-4.26-7.57c-0.42-0.84-0.55-1.23-3.57-1.19c-3.02,0.04-21.45,0-21.45,0S25.21,18.43,24.38,20.02z"/>
<path d="M58.82,34.2c-0.89-1.62-1.5-1.11-1.73-0.78c0,0.01,0,0.02,0,0.03c0,0.04-0.01,0.07-0.01,0.11c0.02,0.05,0.05,0.1,0.07,0.16
	c0.51,0.4,1.86,1.67-1.66,1.67c-4.18,0-34.82,0.03-34.82,0.03s-2.2,0-0.69-1.53c1.52-1.53-1.02-0.94-1.2-0.29
	c-0.23,0.83-1.44,3.06,1.56,3.06s37.21-0.13,37.21-0.13S59.98,36.31,58.82,34.2z"/>
<path d="M58.82,39c-0.46-1.74-1.06-1.64-1.32-1.18c0,0,0,0,0,0c-0.01,0.02-0.02,0.03-0.03,0.05c-0.03,0.09-0.04,0.18-0.06,0.26
	c0,0.01,0,0.02-0.01,0.02c-0.03,0.17-0.04,0.34-0.02,0.51c0.01,0.04,0.01,0.09,0.03,0.12c0.31,0.62,1.02,1.54-1.2,1.57
	c-3,0.03-26.38-0.66-35.14,0.06c-0.42,0.03-1.85,0.31-0.89-1.43c0.96-1.73-0.49-1.41-0.77-1.19c-0.24,0.19-0.47,0.8-0.64,1.05
	c-0.58,0.87-2.07,2.84,3.03,2.9s35.33,0,35.33,0S59.6,41.91,58.82,39z"/>
<path d="M59.83,46.62c-0.03-1.4-0.35-2.01-0.86-2.81c-0.51-0.8-0.93-0.99-0.93-0.99s-1.92-0.19-0.64,1.21
	c1.28,1.4,0.26,1.31,0.26,1.31H19.55c-0.49,0,0.35-1.14,0.69-1.57c0.01-0.03,0.01-0.06,0.03-0.09c0-0.01,0-0.01,0-0.02
	c0,0,0-0.01,0-0.01c0-0.05,0-0.11,0-0.16c0-0.05,0.01-0.1,0.02-0.15c-0.17-0.36-0.62-0.89-1.53,0.31c-1.24,1.63-1.05,2.9-1.05,2.9
	s0.03,5.04,0,8.62c-0.03,3.57,2.46,2.97,2.46,2.97s34.88,0,37.44,0c2.55,0,2.23-1.98,2.23-1.98S59.86,48.02,59.83,46.62z"/>
<path class="st0" d="M20.7,46.74h35.68c0,0,2.07-0.19,2.11,1.34c0.03,1.53-0.13,7.91-0.13,7.91c0.02,0.41-0.04,0.75-0.26,0.91
	c-0.16,0.11-0.34,0.09-0.37,0.08c-0.51-0.04-15.71,0.06-37.15,0.22c0,0-1.79,0.35-1.76-1.4c0.03-1.76,0-7.56,0-7.56
	S18.5,46.59,20.7,46.74z"/>
<path d="M52.47,54.72L52.47,54.72c-0.37,0-0.67-0.3-0.67-0.67v-4.24c0-0.37,0.3-0.67,0.67-0.67l0,0c0.37,0,0.67,0.3,0.67,0.67v4.24
	C53.14,54.42,52.84,54.72,52.47,54.72z"/>
<path d="M55.46,54.78L55.46,54.78c-0.37,0-0.67-0.3-0.67-0.67v-4.24c0-0.37,0.3-0.67,0.67-0.67l0,0c0.37,0,0.67,0.3,0.67,0.67v4.24
	C56.13,54.48,55.83,54.78,55.46,54.78z"/>
<path d="M46.35,54.7L46.35,54.7c-0.37,0-0.67-0.3-0.67-0.67v-4.24c0-0.37,0.3-0.67,0.67-0.67h0c0.37,0,0.67,0.3,0.67,0.67v4.24
	C47.02,54.39,46.72,54.7,46.35,54.7z"/>
<path d="M49.34,54.75L49.34,54.75c-0.37,0-0.67-0.3-0.67-0.67v-4.24c0-0.37,0.3-0.67,0.67-0.67l0,0c0.37,0,0.67,0.3,0.67,0.67v4.24
	C50.01,54.45,49.71,54.75,49.34,54.75z"/>
<path d="M40.26,54.67L40.26,54.67c-0.37,0-0.67-0.3-0.67-0.67v-4.24c0-0.37,0.3-0.67,0.67-0.67h0c0.37,0,0.67,0.3,0.67,0.67V54
	C40.93,54.37,40.63,54.67,40.26,54.67z"/>
<path d="M43.24,54.72L43.24,54.72c-0.37,0-0.67-0.3-0.67-0.67v-4.24c0-0.37,0.3-0.67,0.67-0.67h0c0.37,0,0.67,0.3,0.67,0.67v4.24
	C43.91,54.42,43.61,54.72,43.24,54.72z"/>
<path d="M34.04,54.75L34.04,54.75c-0.37,0-0.67-0.3-0.67-0.67v-4.24c0-0.37,0.3-0.67,0.67-0.67l0,0c0.37,0,0.67,0.3,0.67,0.67v4.24
	C34.71,54.45,34.41,54.75,34.04,54.75z"/>
<path d="M37.03,54.81L37.03,54.81c-0.37,0-0.67-0.3-0.67-0.67v-4.24c0-0.37,0.3-0.67,0.67-0.67l0,0c0.37,0,0.67,0.3,0.67,0.67v4.24
	C37.7,54.51,37.4,54.81,37.03,54.81z"/>
<path d="M27.93,54.7L27.93,54.7c-0.37,0-0.67-0.3-0.67-0.67v-4.24c0-0.37,0.3-0.67,0.67-0.67l0,0c0.37,0,0.67,0.3,0.67,0.67v4.24
	C28.6,54.39,28.3,54.7,27.93,54.7z"/>
<path d="M30.91,54.75L30.91,54.75c-0.37,0-0.67-0.3-0.67-0.67v-4.24c0-0.37,0.3-0.67,0.67-0.67h0c0.37,0,0.67,0.3,0.67,0.67v4.24
	C31.59,54.45,31.29,54.75,30.91,54.75z"/>
<path d="M21.84,54.72L21.84,54.72c-0.37,0-0.67-0.3-0.67-0.67v-4.24c0-0.37,0.3-0.67,0.67-0.67h0c0.37,0,0.67,0.3,0.67,0.67v4.24
	C22.51,54.42,22.21,54.72,21.84,54.72z"/>
<path d="M24.82,54.78L24.82,54.78c-0.37,0-0.67-0.3-0.67-0.67v-4.24c0-0.37,0.3-0.67,0.67-0.67l0,0c0.37,0,0.67,0.3,0.67,0.67v4.24
	C25.49,54.48,25.19,54.78,24.82,54.78z"/>
<g>
	<defs>
		<rect id="SVGID_1_" x="20.64" y="21.5" width="22.47" height="8.69"/>
	</defs>
	<clipPath id="SVGID_00000068636339748403900410000003923044285631022467_">
		<use xlink:href="#SVGID_1_"  style="overflow:visible;"/>
	</clipPath>
	<g style="clip-path:url(#SVGID_00000068636339748403900410000003923044285631022467_);">
		<g id="_x3C_Grid_Repeat_x3E__00000091702498948893443240000011357236527505858442_">
			<circle cx="22.54" cy="22.8" r="0.7"/>
		</g>
		<g id="_x3C_Grid_Repeat_x3E__00000144324451860639598700000000785811956259313537_">
			<circle cx="25.75" cy="22.8" r="0.7"/>
		</g>
		<g id="_x3C_Grid_Repeat_x3E__00000046335586973937857400000011142651943016907158_">
			<circle cx="28.96" cy="22.8" r="0.7"/>
		</g>
		<g id="_x3C_Grid_Repeat_x3E__00000065772918130855793070000016222060953217375374_">
			<circle cx="32.18" cy="22.8" r="0.7"/>
		</g>
		<g id="_x3C_Grid_Repeat_x3E__00000076584182308945628910000002261018305943036808_">
			<circle cx="35.39" cy="22.8" r="0.7"/>
		</g>
		<g id="_x3C_Grid_Repeat_x3E__00000131346052320710713900000004691219710361869754_">
			<circle cx="38.61" cy="22.8" r="0.7"/>
		</g>
		<g id="_x3C_Grid_Repeat_x3E__00000074436251749880205750000008259520623128965302_">
			<circle cx="41.82" cy="22.8" r="0.7"/>
		</g>
		<g id="_x3C_Grid_Repeat_x3E__00000081623345219102855560000007843811972867525277_">
			<circle cx="22.54" cy="25.93" r="0.7"/>
		</g>
		<g id="_x3C_Grid_Repeat_x3E__00000113355545235971034600000016601007566372031394_">
			<circle cx="25.75" cy="25.93" r="0.7"/>
		</g>
		<g id="_x3C_Grid_Repeat_x3E__00000068637905083153893710000008521756834234819712_">
			<circle cx="28.96" cy="25.93" r="0.7"/>
		</g>
		<g id="_x3C_Grid_Repeat_x3E__00000046305447227684458920000015723921084723997111_">
			<circle cx="32.18" cy="25.93" r="0.7"/>
		</g>
		<g id="_x3C_Grid_Repeat_x3E__00000059274663463586149230000015880271963068056739_">
			<circle cx="35.39" cy="25.93" r="0.7"/>
		</g>
		<g id="_x3C_Grid_Repeat_x3E__00000056389354135330690120000002051617348270469794_">
			<circle cx="38.61" cy="25.93" r="0.7"/>
		</g>
		<g id="_x3C_Grid_Repeat_x3E__00000072247890398802809630000004503316176811658918_">
			<circle cx="41.82" cy="25.93" r="0.7"/>
		</g>
		<g id="_x3C_Grid_Repeat_x3E__00000056413257383909700010000012196544308193642647_">
			<circle cx="22.54" cy="29.06" r="0.7"/>
		</g>
		<g id="_x3C_Grid_Repeat_x3E__00000045585238586006334260000005786266490243633566_">
			<circle cx="25.75" cy="29.06" r="0.7"/>
		</g>
		<g id="_x3C_Grid_Repeat_x3E__00000021841768121430145600000015621560416676066177_">
			<circle cx="28.96" cy="29.06" r="0.7"/>
		</g>
		<g id="_x3C_Grid_Repeat_x3E__00000138546370711180774280000017022282051620653980_">
			<circle cx="32.18" cy="29.06" r="0.7"/>
		</g>
		<g id="_x3C_Grid_Repeat_x3E__00000132809302161023918820000001079327228179742858_">
			<circle cx="35.39" cy="29.06" r="0.7"/>
		</g>
		<g id="_x3C_Grid_Repeat_x3E__00000075881619137079811460000001371930933151601322_">
			<circle cx="38.61" cy="29.06" r="0.7"/>
		</g>
		<g id="_x3C_Grid_Repeat_x3E__00000122678709785237890600000013186733181555069833_">
			<circle cx="41.82" cy="29.06" r="0.7"/>
		</g>
	</g>
</g>
<g>
	<defs>
		<rect id="SVGID_00000117678699795519232100000011513289720556959148_" x="42.91" y="21.5" width="12.37" height="8.35"/>
	</defs>
	<clipPath id="SVGID_00000063611531678308066320000017173239765382871712_">
		<use xlink:href="#SVGID_00000117678699795519232100000011513289720556959148_"  style="overflow:visible;"/>
	</clipPath>
	<g style="clip-path:url(#SVGID_00000063611531678308066320000017173239765382871712_);">
		<g id="_x3C_Grid_Repeat_x3E__00000002365051253249102000000009986005956632220342_">
			<circle cx="44.81" cy="22.8" r="0.7"/>
		</g>
		<g id="_x3C_Grid_Repeat_x3E__00000063606358014067123590000002031132631628180864_">
			<circle cx="48.03" cy="22.8" r="0.7"/>
		</g>
		<g id="_x3C_Grid_Repeat_x3E__00000025435546462168488670000009447777373481142912_">
			<circle cx="51.24" cy="22.8" r="0.7"/>
		</g>
		<g id="_x3C_Grid_Repeat_x3E__00000084491054025101300230000001386157965028352699_">
			<circle cx="54.46" cy="22.8" r="0.7"/>
		</g>
		<g id="_x3C_Grid_Repeat_x3E__00000116935394368447426010000008957365917635765126_">
			<circle cx="44.81" cy="25.93" r="0.7"/>
		</g>
		<g id="_x3C_Grid_Repeat_x3E__00000108991260389390670810000009962990800442619825_">
			<circle cx="48.03" cy="25.93" r="0.7"/>
		</g>
		<g id="_x3C_Grid_Repeat_x3E__00000088831834809577708230000006655937253241353617_">
			<circle cx="51.24" cy="25.93" r="0.7"/>
		</g>
		<g id="_x3C_Grid_Repeat_x3E__00000167372459696484761880000007963753518815092866_">
			<circle cx="54.46" cy="25.93" r="0.7"/>
		</g>
		<g id="_x3C_Grid_Repeat_x3E__00000041285318779005675730000005879502918952724139_">
			<circle cx="44.81" cy="29.06" r="0.7"/>
		</g>
		<g id="_x3C_Grid_Repeat_x3E__00000062898001964069187300000013152290082343993512_">
			<circle cx="48.03" cy="29.06" r="0.7"/>
		</g>
		<g id="_x3C_Grid_Repeat_x3E__00000052066007955449652780000013024249551432487322_">
			<circle cx="51.24" cy="29.06" r="0.7"/>
		</g>
		<g id="_x3C_Grid_Repeat_x3E__00000101084645573219643240000001054301102969091211_">
			<circle cx="54.46" cy="29.06" r="0.7"/>
		</g>
	</g>
</g>
<g>
	<defs>
		<rect id="SVGID_00000073720641180690201260000009321162259842378170_" x="49.35" y="27.77" width="10.05" height="3.02"/>
	</defs>
	<clipPath id="SVGID_00000183239951180106034260000004753103326690725052_">
		<use xlink:href="#SVGID_00000073720641180690201260000009321162259842378170_"  style="overflow:visible;"/>
	</clipPath>
	<g style="clip-path:url(#SVGID_00000183239951180106034260000004753103326690725052_);">
		<g id="_x3C_Grid_Repeat_x3E__00000057849531568663670000000015346251691079570083_">
			<circle cx="51.25" cy="29.08" r="0.7"/>
		</g>
		<g id="_x3C_Grid_Repeat_x3E__00000124132499254054561120000008733495125424285577_">
			<circle cx="54.46" cy="29.08" r="0.7"/>
		</g>
		<g id="_x3C_Grid_Repeat_x3E__00000159440030007815244740000010916947019823569838_">
			<circle cx="57.68" cy="29.08" r="0.7"/>
		</g>
	</g>
</g>
<g>
	<defs>
		<rect id="SVGID_00000163782202843394789620000010208104319215695293_" x="42.91" y="18.43" width="10.05" height="3.02"/>
	</defs>
	<clipPath id="SVGID_00000036223465032083027760000008240900544674728833_">
		<use xlink:href="#SVGID_00000163782202843394789620000010208104319215695293_"  style="overflow:visible;"/>
	</clipPath>
	<g style="clip-path:url(#SVGID_00000036223465032083027760000008240900544674728833_);">
		<g id="_x3C_Grid_Repeat_x3E__00000168829982985811911790000003519835726246830005_">
			<circle cx="44.81" cy="19.74" r="0.7"/>
		</g>
		<g id="_x3C_Grid_Repeat_x3E__00000076566813814733331830000011018290671854575284_">
			<circle cx="48.03" cy="19.74" r="0.7"/>
		</g>
		<g id="_x3C_Grid_Repeat_x3E__00000020394381989496225850000017646363676622361248_">
			<circle cx="51.24" cy="19.74" r="0.7"/>
		</g>
	</g>
</g>
<g>
	<defs>
		<rect id="SVGID_00000137833470775170213190000015388540549278432679_" x="23.85" y="18.43" width="18.71" height="3.02"/>
	</defs>
	<clipPath id="SVGID_00000037674213268247709790000000213079895421265809_">
		<use xlink:href="#SVGID_00000137833470775170213190000015388540549278432679_"  style="overflow:visible;"/>
	</clipPath>
	<g style="clip-path:url(#SVGID_00000037674213268247709790000000213079895421265809_);">
		<g id="_x3C_Grid_Repeat_x3E__00000142884145264377427460000001062846449112257416_">
			<circle cx="25.75" cy="19.74" r="0.7"/>
		</g>
		<g id="_x3C_Grid_Repeat_x3E__00000078738707501683674350000007335928436323238556_">
			<circle cx="28.96" cy="19.74" r="0.7"/>
		</g>
		<g id="_x3C_Grid_Repeat_x3E__00000010283736299257185330000002137569953478531734_">
			<circle cx="32.18" cy="19.74" r="0.7"/>
		</g>
		<g id="_x3C_Grid_Repeat_x3E__00000138545718293971095150000002431727712981806254_">
			<circle cx="35.39" cy="19.74" r="0.7"/>
		</g>
		<g id="_x3C_Grid_Repeat_x3E__00000131368825016618650900000000604650167778538651_">
			<circle cx="38.61" cy="19.74" r="0.7"/>
		</g>
		<g id="_x3C_Grid_Repeat_x3E__00000067214720325511883250000005662818049294073275_">
			<circle cx="41.82" cy="19.74" r="0.7"/>
		</g>
	</g>
</g>
</svg>
